<?xml version="1.0" standalone="no"?>
<!DOCTYPE svg PUBLIC "-//W3C//DTD SVG 20010904//EN"
 "http://www.w3.org/TR/2001/REC-SVG-20010904/DTD/svg10.dtd">
<svg version="1.0" xmlns="http://www.w3.org/2000/svg"
 width="1024.000000pt" height="1024.000000pt" viewBox="0 0 1024.000000 1024.000000"
 preserveAspectRatio="xMidYMid meet">

<g transform="translate(0.000000,1024.000000) scale(0.100000,-0.100000)"
fill="#000000" stroke="none">
<path d="M2273 5866 c-202 -51 -315 -210 -282 -393 27 -148 108 -214 388 -314
202 -73 251 -114 251 -212 0 -130 -88 -190 -275 -190 -112 0 -209 27 -304 82
-29 17 -54 31 -56 31 -3 0 -5 -42 -5 -93 l0 -94 65 -32 c108 -52 174 -65 320
-65 107 1 140 5 189 23 189 68 286 204 274 382 -13 174 -110 263 -388 354
-195 64 -251 103 -265 184 -11 63 22 116 93 149 50 24 69 27 157 26 121 0 202
-22 338 -92 4 -2 7 39 7 91 l0 95 -47 20 c-98 41 -157 53 -283 58 -83 2 -142
-1 -177 -10z"/>
<path d="M3032 5248 l3 -633 100 0 100 0 5 295 c5 288 6 296 28 333 13 20 40
50 60 65 30 23 47 28 111 30 66 3 80 1 110 -20 77 -53 75 -43 81 -391 l5 -312
103 -3 102 -3 0 301 c0 334 -8 402 -59 478 -60 92 -132 125 -266 126 -114 1
-164 -16 -232 -78 -22 -20 -42 -36 -44 -36 -2 0 -3 108 -1 240 l3 240 -106 0
-105 0 2 -632z"/>
<path d="M6024 5846 c-39 -39 -45 -86 -19 -136 19 -36 43 -50 90 -50 66 0 110
35 115 90 5 53 -1 73 -29 101 -24 24 -38 29 -76 29 -40 0 -52 -5 -81 -34z
m111 19 c-23 -8 -83 -10 -79 -3 3 4 24 8 47 7 23 0 38 -2 32 -4z m40 -23 c-3
-3 -11 0 -18 7 -9 10 -8 11 6 5 10 -3 15 -9 12 -12z m-151 -19 c-18 -37 -18
-83 2 -113 l16 -25 -22 25 c-18 20 -21 33 -17 67 2 24 10 50 17 58 19 23 20
18 4 -12z m174 -24 c-3 -8 -7 -3 -11 10 -4 17 -3 21 5 13 5 -5 8 -16 6 -23z
m-27 -101 c-25 -22 -40 -28 -74 -27 l-42 2 47 6 c49 7 87 33 89 60 0 13 2 13
6 2 4 -9 -7 -26 -26 -43z"/>
<path d="M4335 5514 c-87 -21 -117 -31 -168 -56 l-59 -29 7 -77 c4 -42 9 -79
11 -81 1 -2 18 6 36 17 91 54 266 75 335 39 40 -21 73 -75 73 -121 l0 -36 -77
0 c-159 -1 -312 -38 -384 -93 -162 -124 -135 -375 49 -463 48 -24 70 -28 142
-29 74 0 93 4 144 29 32 16 76 47 97 69 l39 39 0 -56 0 -56 101 0 100 0 -3
328 c-5 379 -9 402 -85 483 -60 64 -128 90 -248 95 -49 1 -99 1 -110 -2z m230
-600 c-9 -53 -61 -113 -118 -140 -121 -56 -236 -10 -237 94 0 54 24 88 87 118
47 24 74 29 162 34 l106 5 3 -40 c2 -22 1 -54 -3 -71z"/>
<path d="M5291 5510 c-65 -14 -163 -63 -209 -104 -96 -87 -142 -202 -142 -354
0 -110 15 -177 56 -253 134 -246 494 -291 707 -90 146 138 181 403 78 586 -16
28 -35 50 -42 50 -8 0 -13 8 -11 17 3 19 -46 61 -61 51 -5 -3 -7 -1 -4 4 4 6
-4 18 -18 27 -29 19 -39 20 -29 4 4 -7 3 -8 -5 -4 -6 4 -9 11 -6 16 3 5 -21
18 -52 30 -66 25 -192 34 -262 20z m209 -190 c54 -28 108 -95 127 -159 21 -75
14 -202 -15 -261 -11 -24 -18 -48 -15 -53 3 -6 2 -7 -4 -4 -6 4 -21 -5 -34
-19 -45 -48 -97 -69 -174 -68 -110 0 -188 53 -225 151 -27 73 -28 230 -1 288
35 78 91 126 166 146 44 12 131 1 175 -21z"/>
<path d="M7878 5513 c18 -2 45 -2 60 0 15 2 0 4 -33 4 -33 0 -45 -2 -27 -4z"/>
<path d="M7754 5485 c-28 -14 -63 -40 -80 -57 l-29 -33 30 26 c44 39 79 59
127 74 24 8 34 14 22 14 -11 1 -43 -10 -70 -24z"/>
<path d="M7978 5503 c6 -2 18 -2 25 0 6 3 1 5 -13 5 -14 0 -19 -2 -12 -5z"/>
<path d="M6000 4999 c0 -437 -2 -505 -16 -535 -20 -41 -65 -58 -129 -49 l-45
7 0 -75 0 -75 31 -11 c45 -16 139 -14 190 4 66 24 109 62 138 124 l26 56 3
528 3 527 -101 0 -100 0 0 -501z m17 139 c-1 -68 -3 -15 -3 117 0 132 2 187 3
123 2 -64 2 -172 0 -240z m60 346 c-3 -3 -12 -4 -19 -1 -8 3 -5 6 6 6 11 1 17
-2 13 -5z m111 -421 l-3 -428 -2 422 c-3 391 -4 422 -21 426 -13 4 -11 5 6 6
l22 1 -2 -427z"/>
<path d="M6402 5158 c3 -307 5 -347 22 -385 10 -24 22 -41 26 -38 4 3 7 -3 6
-13 0 -9 4 -16 10 -15 13 2 53 -38 52 -52 -2 -17 71 -52 133 -65 36 -8 84 -10
121 -6 64 6 173 49 164 64 -3 5 15 29 40 53 25 24 45 40 44 34 -2 -5 -2 -36
-1 -67 l1 -58 100 0 100 0 0 445 0 445 -95 0 c-68 0 -97 -4 -100 -12 -7 -21
-11 -589 -3 -570 4 9 7 142 7 295 l1 277 90 0 90 0 0 -435 0 -435 -90 0 -90 0
1 48 2 47 6 -40 6 -40 78 -1 77 -1 -2 151 c-1 83 -3 125 -5 93 -3 -40 -8 -57
-16 -54 -7 2 -22 0 -34 -4 -17 -6 -23 -4 -28 11 -7 23 -65 50 -65 30 0 -5 -9
-7 -21 -5 -18 4 -19 2 -7 -12 11 -14 11 -15 0 -9 -9 5 -25 -2 -45 -22 -56 -53
-144 -83 -207 -71 -32 6 -31 6 16 8 78 2 137 27 183 77 23 24 41 49 41 55 0 7
-13 -6 -29 -27 -32 -45 -61 -66 -111 -82 -41 -12 -178 -23 -161 -13 8 5 3 12
-14 19 -35 16 -44 15 -21 -3 11 -8 16 -15 10 -15 -14 1 -50 30 -36 30 6 0 1
16 -13 36 -32 48 -35 76 -38 394 l-2 275 -98 3 -98 3 3 -343z m178 83 c0 -136
2 -270 5 -297 3 -38 2 -42 -4 -19 -5 17 -9 147 -10 290 l-1 260 -75 1 -75 0
-3 -310 -2 -311 -3 318 -2 317 85 0 85 0 0 -249z m49 -436 c0 -5 -6 1 -14 15
-8 14 -14 30 -14 35 0 6 6 -1 14 -15 8 -14 14 -29 14 -35z m531 -15 c8 -15 8
-18 -3 -14 -8 3 -14 11 -14 19 0 20 4 19 17 -5z m30 10 c0 -5 -2 -10 -4 -10
-3 0 -8 5 -11 10 -3 6 -1 10 4 10 6 0 11 -4 11 -10z m-60 -23 c0 -11 -1 -18
-3 -16 -1 2 -8 11 -15 20 -9 13 -9 16 3 16 8 0 15 -9 15 -20z m-224 -142 c-11
-8 -25 -15 -30 -15 -6 1 0 7 14 15 32 19 40 18 16 0z m-249 -31 c-3 -3 -12 -4
-19 -1 -8 3 -5 6 6 6 11 1 17 -2 13 -5z m170 0 c-3 -3 -12 -4 -19 -1 -8 3 -5
6 6 6 11 1 17 -2 13 -5z m-64 -11 c-13 -2 -35 -2 -50 0 -16 2 -5 4 22 4 28 0
40 -2 28 -4z"/>
<path d="M7435 5488 c-3 -7 -4 -206 -3 -443 l3 -430 98 -3 97 -3 -2 278 -3
278 -2 -272 -3 -273 -90 0 -90 0 0 435 0 435 90 0 89 0 4 -62 3 -63 2 68 2 67
-95 0 c-67 0 -97 -4 -100 -12z"/>
<path d="M8020 5497 c0 -3 15 -10 32 -16 18 -6 28 -7 23 -2 -12 10 -55 25 -55
18z"/>
<path d="M8127 5428 c48 -53 70 -100 82 -173 6 -36 9 -42 10 -19 3 72 -42 166
-103 214 -25 19 -23 15 11 -22z"/>
<path d="M7750 5334 c-19 -8 -45 -25 -58 -37 -29 -27 -62 -89 -61 -114 0 -10
4 -6 9 11 14 44 60 106 94 124 17 8 63 19 101 22 l70 7 -60 1 c-34 1 -75 -5
-95 -14z"/>
<path d="M7953 5316 c10 -8 30 -29 43 -47 13 -18 24 -28 24 -22 0 16 -39 62
-63 74 -21 9 -21 9 -4 -5z"/>
<path d="M8021 5214 c0 -11 3 -14 6 -6 3 7 2 16 -1 19 -3 4 -6 -2 -5 -13z"/>
<path d="M8220 4910 l0 -290 -90 0 -90 0 -3 288 -2 287 -3 -292 -2 -293 100 0
100 0 0 295 c0 162 -2 295 -5 295 -3 0 -5 -130 -5 -290z"/>
<path d="M7030 4895 c0 -8 2 -15 4 -15 2 0 6 7 10 15 3 8 1 15 -4 15 -6 0 -10
-7 -10 -15z"/>
<path d="M7451 4718 l-1 -77 80 0 c61 0 80 4 80 14 0 9 -6 12 -15 9 -8 -4 -23
0 -32 7 -9 8 -14 9 -10 3 12 -20 -20 -24 -39 -5 -17 16 -20 16 -31 2 -9 -13
-12 -8 -17 29 -12 92 -13 93 -15 18z"/>
<path d="M6971 4685 c-19 -19 -29 -35 -24 -35 10 0 44 35 57 58 12 20 3 14
-33 -23z"/>
<path d="M6470 4693 c0 -13 29 -38 35 -31 3 3 -4 13 -15 23 -11 10 -20 13 -20
8z"/>
<path d="M8192 4660 c0 -14 2 -19 5 -12 2 6 2 18 0 25 -3 6 -5 1 -5 -13z"/>
</g>
</svg>
